<?xml version="1.0" encoding="UTF-8"?>
<svg id="Icone" xmlns="http://www.w3.org/2000/svg" viewBox="0 0 1345.07 1345.07">
  <defs>
    <style>
      .cls-1 {
        fill: #d58646;
      }
    </style>
  </defs>
  <g id="Icone_Laranja" data-name="Icone Laranja">
    <g>
      <path class="cls-1" d="M688.05,127.92c-293.85,0-532.06,238.21-532.06,532.06,0,124.78,42.96,239.53,114.9,330.26,19.19-14.15,37.76-28.63,54.52-42.93,7.24-6.51,14.29-12.94,21.16-19.28-58.03-73.81-92.63-166.89-92.63-268.05,0-239.76,194.36-434.11,434.11-434.11s434.11,194.35,434.11,434.11-194.36,434.11-434.11,434.11c-30.62,0-60.5-3.17-89.33-9.21-29.32,27.91-59.29,53.62-88.29,76.78,55.55,19.67,115.34,30.37,177.62,30.37,293.85,0,532.06-238.21,532.06-532.05S981.9,127.92,688.05,127.92Z"/>
      <path class="cls-1" d="M750.39,869.27v-140.09l-1.09.9s-60,116.9-248.68,286.44c-33.82,28.85-75,58.44-113.78,84.46,24.03,16.98,51.05,32.89,80.75,45.66,47.67-35.7,100.38-79.37,149.84-129.25,59.67-60.18,102.9-110.27,132.96-148.12Z"/>
      <path class="cls-1" d="M631.86,813.64c88.7-112.1,141.54-193.21,162.4-230l49.37,173.33,83.1-23.67-68.76-241.44.31-.09-23.67-83.1-323.64,92.17,23.67,83.1,188.89-53.8c-18.58,39.64-75.79,147.21-207.85,295.66-81.37,86.87-214.67,184.97-222.8,190.92,16.01,17.87,37.19,39.29,62.96,60.53,30.38-22.13,165.75-124.25,276.02-263.62Z"/>
    </g>
  </g>
</svg>