<?xml version="1.0" encoding="UTF-8"?>
<svg id="Secundaria" xmlns="http://www.w3.org/2000/svg" viewBox="0 0 2500 1164.09">
  <defs>
    <style>
      .cls-1 {
        fill: #e7dbc7;
      }

      .cls-2 {
        fill: #d58646;
      }
    </style>
  </defs>
  <g id="Secundária_Laranja" data-name="Secundária Laranja">
    <g>
      <path class="cls-1" d="M973.87,352.79l22.45-26.12v148.47l-11.91-15.81h128.08v41.24h-128.08l11.91-15.81v149.62l-22.45-26.12h164.05v41.24h-191.55v-337.95h191.55v41.24h-164.05Z"/>
      <path class="cls-1" d="M1228.61,291.39c-7.41,10.42-21.71,26.39-48.53,45.43v312.69h49.03v-358.12h-.5Z"/>
      <path class="cls-1" d="M1288.45,545.26v-38.72h179.17l-6.87,11.46v-5.5c0-12.37-2.67-23.79-8.02-34.25-5.35-10.46-13.33-18.86-23.94-25.2-10.62-6.34-23.87-9.51-39.75-9.51s-29.83,3.4-41.81,10.2c-11.99,6.8-21.31,16.42-27.95,28.87-6.64,12.45-9.97,27.38-9.97,44.79s3.21,32.96,9.62,45.71c6.42,12.76,15.66,22.57,27.72,29.44,12.06,6.87,26.5,10.31,43.3,10.31,11.76,0,21.96-1.18,30.59-3.55,8.63-2.37,15.73-5.53,21.31-9.51,5.57-3.97,9.81-8.28,12.72-12.95,2.9-4.66,4.58-9.28,5.04-13.86h49.49c-.92,9.93-4.16,19.74-9.74,29.44-5.58,9.7-13.44,18.48-23.6,26.35-10.16,7.87-22.53,14.13-37.12,18.79-14.59,4.66-31.35,6.99-50.29,6.99-25.36,0-47.58-5.34-66.67-16.04-19.1-10.69-33.99-25.55-44.68-44.56-10.69-19.02-16.04-40.82-16.04-65.41s5.42-47.04,16.27-65.99c10.84-18.94,25.89-33.72,45.14-44.33,19.25-10.61,41.32-15.92,66.22-15.92s47.31,5.35,65.87,16.04c18.56,10.69,32.88,25.43,42.96,44.22,10.08,18.79,15.12,40.4,15.12,64.84,0,2.9-.08,6.27-.23,10.08-.15,3.82-.38,6.42-.69,7.79h-223.16ZM1357.42,369.52l54.76-57.97h42.16l-60.26,57.97h-36.66Z"/>
      <path class="cls-1" d="M1747.15,406.18l-78.82,243.33h-65.99l-80.88-243.33h51.32l66.45,222.48h-7.79l64.38-222.48h51.32Z"/>
      <path class="cls-1" d="M1871.1,654.09c-25.05,0-47.16-5.42-66.33-16.27-19.17-10.84-34.14-25.78-44.91-44.79-10.77-19.02-16.15-40.82-16.15-65.41s5.38-46.09,16.15-64.96c10.77-18.86,25.74-33.6,44.91-44.22,19.17-10.61,41.28-15.92,66.33-15.92s47.16,5.31,66.33,15.92c19.17,10.62,34.14,25.36,44.91,44.22,10.77,18.87,16.15,40.52,16.15,64.96s-5.38,46.4-16.15,65.41c-10.77,19.02-25.74,33.95-44.91,44.79-19.17,10.85-41.28,16.27-66.33,16.27ZM1871.1,611.47c15.27,0,28.72-3.44,40.33-10.31,11.61-6.87,20.7-16.61,27.27-29.21,6.57-12.6,9.85-27.38,9.85-44.33s-3.29-31.39-9.85-43.76c-6.57-12.37-15.66-21.92-27.27-28.64-11.61-6.72-25.05-10.08-40.33-10.08s-28.53,3.36-40.21,10.08c-11.69,6.72-20.81,16.27-27.38,28.64-6.57,12.37-9.85,26.96-9.85,43.76s3.28,31.73,9.85,44.33c6.57,12.6,15.69,22.34,27.38,29.21,11.69,6.87,25.09,10.31,40.21,10.31Z"/>
      <path class="cls-1" d="M2028.96,649.51v-243.33h49.72v77.67l-13.29-5.96c1.07-9.93,3.59-19.4,7.56-28.41,3.97-9.01,9.28-17.07,15.92-24.17,6.64-7.1,14.85-12.72,24.63-16.84,9.77-4.12,21.08-6.19,33.91-6.19,9.77,0,17.68.77,23.71,2.29,6.03,1.53,9.74,2.75,11.11,3.67l-10.54,46.74c-1.53-1.07-4.62-2.44-9.28-4.12-4.66-1.68-11.11-2.52-19.36-2.52-12.53,0-22.91,2.22-31.16,6.64-8.25,4.43-14.82,10.31-19.7,17.64-4.89,7.33-8.36,15.32-10.43,23.94-2.06,8.63-3.09,17.3-3.09,26.01v126.93h-49.72Z"/>
      <path class="cls-1" d="M2277.1,654.32c-18.33,0-34.41-2.9-48.23-8.71-13.83-5.8-24.56-14.13-32.19-24.97-7.64-10.84-11.46-23.9-11.46-39.18,0-16.34,4.31-29.86,12.95-40.55,8.63-10.69,20.54-18.98,35.74-24.86,15.2-5.88,32.5-9.74,51.9-11.57,28.87-2.9,49.22-5.73,61.06-8.48,11.84-2.75,17.76-7.25,17.76-13.52v-.46c0-12.37-5.27-21.77-15.81-28.18-10.54-6.42-25.59-9.62-45.14-9.62-20.62,0-36.54,3.63-47.77,10.88-11.23,7.26-16.84,18.75-16.84,34.48h-48.8c0-18.63,4.85-34.44,14.55-47.43,9.7-12.98,23.1-22.87,40.21-29.67,17.11-6.79,36.73-10.2,58.88-10.2,20.31,0,38.84,3.09,55.56,9.28,16.73,6.19,30.05,15.39,39.98,27.61,9.93,12.22,14.89,27.42,14.89,45.6v116.16c0,5.65.23,11.11.69,16.38.46,5.27,1.3,9.97,2.52,14.09,1.37,4.74,3.01,8.63,4.93,11.69,1.91,3.06,3.47,5.19,4.7,6.42h-49.49c-.92-.92-2.26-2.86-4.01-5.84-1.76-2.98-3.32-6.45-4.7-10.43-1.37-3.82-2.41-8.21-3.09-13.17-.69-4.96-1.03-10.35-1.03-16.15l9.16,6.42c-4.58,8.86-11.5,16.58-20.74,23.14-9.24,6.57-20.32,11.69-33.22,15.35-12.91,3.67-27.23,5.5-42.96,5.5ZM2287.41,613.08c14.21,0,27.15-2.25,38.84-6.76,11.69-4.5,21.04-11.38,28.07-20.62,7.02-9.24,10.54-20.89,10.54-34.94v-40.33l11.69,15.35c-9.78,3.82-21.73,6.91-35.86,9.28-14.13,2.37-28.68,4.32-43.65,5.84-20.62,1.83-36.13,5.38-46.51,10.65-10.39,5.27-15.58,14.02-15.58,26.23s4.31,20.59,12.95,26.46c8.63,5.88,21.8,8.82,39.52,8.82Z"/>
    </g>
    <g>
      <path class="cls-1" d="M948.21,877.34v-128.39h38.39c8.53,0,16.28,1.52,23.24,4.57,6.96,3.05,12.94,7.39,17.93,13.01,4.99,5.63,8.85,12.38,11.58,20.24,2.73,7.86,4.09,16.61,4.09,26.24s-1.36,18.38-4.09,26.24c-2.73,7.86-6.59,14.64-11.58,20.32-4.99,5.69-10.97,10.07-17.93,13.14-6.96,3.08-14.71,4.61-23.24,4.61h-38.39ZM971.19,870.46l-10.36-11.4h22.8c6.96,0,13.19-1.87,18.67-5.61,5.48-3.74,9.82-9.05,13.01-15.93,3.19-6.88,4.79-15.04,4.79-24.5s-1.6-17.7-4.79-24.54c-3.19-6.85-7.53-12.1-13.01-15.75-5.48-3.66-11.71-5.48-18.67-5.48h-22.8l10.36-11.4v114.63Z"/>
      <path class="cls-1" d="M1076.42,877.34v-128.39h22.63v128.39h-22.63Z"/>
      <path class="cls-1" d="M1186,879.25c-9.98,0-19.05-2.55-27.2-7.66-8.15-5.1-14.64-12.56-19.45-22.37-4.82-9.81-7.22-21.73-7.22-35.77s2.49-26.08,7.49-35.95c4.99-9.86,11.74-17.39,20.24-22.59,8.5-5.19,18-7.79,28.5-7.79,8.7,0,16.09,1.44,22.15,4.31,6.06,2.87,11,6.57,14.8,11.1,3.8,4.53,6.56,9.28,8.27,14.28,1.71,4.99,2.57,9.63,2.57,13.93v1.05h-22.28v-1.05c0-3.02-.52-5.98-1.57-8.88-1.04-2.9-2.64-5.54-4.79-7.92-2.15-2.38-4.82-4.26-8.01-5.66-3.19-1.39-6.91-2.09-11.14-2.09-5.74,0-11.13,1.6-16.15,4.79-5.02,3.19-9.08,8.25-12.19,15.19-3.1,6.93-4.66,16.03-4.66,27.29,0,8.53.87,15.78,2.61,21.76,1.74,5.98,4.1,10.82,7.09,14.54,2.99,3.71,6.41,6.43,10.27,8.14,3.86,1.71,7.93,2.57,12.23,2.57,5.8,0,10.63-.99,14.49-2.96,3.86-1.97,6.88-4.44,9.05-7.4s3.56-5.86,4.14-8.7v-10.01h-27.42v-17.23h47.96v63.19h-13.23l-1.91-14.28c-.41,1.05-1.35,2.47-2.83,4.27-1.48,1.8-3.58,3.61-6.31,5.44-2.73,1.83-6.2,3.37-10.4,4.61-4.21,1.25-9.24,1.87-15.1,1.87Z"/>
      <path class="cls-1" d="M1272.7,877.34v-128.39h22.63v128.39h-22.63Z"/>
      <path class="cls-1" d="M1414.14,767.23h-40.65l8.44-11.4v121.51h-22.98v-121.51l8.88,11.4h-41v-18.28h87.3v18.28Z"/>
      <path class="cls-1" d="M1425.02,877.34l33.16-128.56h36.21l32.9,128.56h-23.59l-27.51-114.37h.17l-27.77,114.37h-23.59ZM1446.43,846.09v-18.37h59.71v18.37h-59.71Z"/>
      <path class="cls-1" d="M1557.06,877.34v-128.39h22.98v121.51l-10.36-12.1h59.01v18.97h-71.63Z"/>
    </g>
    <g>
      <path class="cls-2" d="M473.1,236.8c-192.02,0-347.68,155.66-347.68,347.68,0,81.54,28.07,156.52,75.08,215.81,12.54-9.25,24.67-18.71,35.63-28.05,4.73-4.25,9.34-8.46,13.83-12.6-37.92-48.23-60.53-109.06-60.53-175.16,0-156.68,127.01-283.68,283.68-283.68s283.68,127,283.68,283.68-127.01,283.68-283.68,283.68c-20.01,0-39.53-2.07-58.37-6.02-19.16,18.24-38.74,35.04-57.69,50.17,36.3,12.85,75.37,19.85,116.07,19.85,192.02,0,347.68-155.66,347.68-347.68s-155.66-347.68-347.68-347.68Z"/>
      <path class="cls-2" d="M513.84,721.24v-91.54l-.71.59s-39.21,76.39-162.5,187.18c-22.1,18.85-49.01,38.19-74.35,55.19,15.7,11.1,33.36,21.49,52.77,29.84,31.15-23.33,65.59-51.87,97.92-84.46,38.99-39.33,67.24-72.06,86.89-96.79Z"/>
      <path class="cls-2" d="M436.39,684.89c57.96-73.25,92.49-126.25,106.12-150.3l32.26,113.27,54.3-15.46-44.93-157.77.21-.06-15.46-54.3-211.49,60.23,15.46,54.3,123.43-35.15c-12.14,25.91-49.53,96.2-135.82,193.2-53.17,56.77-140.28,120.87-145.59,124.76,10.46,11.68,24.3,25.67,41.14,39.55,19.85-14.46,108.31-81.19,180.37-172.27Z"/>
    </g>
  </g>
</svg>